<svg id="Layer_1" enable-background="new 0 0 512 512" height="512" viewBox="0 0 512 512" width="512" xmlns="http://www.w3.org/2000/svg" xmlns:xlink="http://www.w3.org/1999/xlink"><linearGradient id="SVGID_1_" gradientUnits="userSpaceOnUse" x1="256" x2="256" y1="0" y2="512"><stop offset="0" stop-color="#8df49b"/><stop offset="1" stop-color="#589cf9"/></linearGradient><path d="m511.645 445.527-42.071-324.527h-113.574v-21c0-55.14-44.859-100-100-100s-100 44.86-100 100v21h-113.574l-42.022 324.114-.049.414c-1.836 16.917 3.629 33.881 14.993 46.545s27.641 19.927 44.657 19.927h391.99c17.016 0 33.292-7.263 44.656-19.927s16.829-29.629 14.994-46.546zm-315.645-345.527c0-33.084 26.916-60 60-60s60 26.916 60 60v21h-120zm270.881 365.358c-3.844 4.283-9.13 6.642-14.886 6.642h-391.99c-5.756 0-11.042-2.359-14.886-6.642-3.805-4.24-5.582-9.681-5.016-15.34l37.471-289.018h356.852l37.471 289.018c.566 5.659-1.211 11.1-5.016 15.34zm-149.309-261.927 27.428-10.972v171.541c0 22.091-17.909 40-40 40s-40-17.909-40-40 17.909-40 40-40v-72.959c-37.334 13.59-68.34 22.232-86 26.731v120.228c0 3.283-.806 6.373-2.208 9.107-5.428 15.651-20.293 26.893-37.792 26.893-22.091 0-40-17.909-40-40s17.909-40 40-40v-108.168l15.81-3.388c.538-.116 55.341-12.045 122.762-39.013z" fill="url(#SVGID_1_)"/></svg>